<svg xmlns="http://www.w3.org/2000/svg" viewBox="0 0 50 50"><g id="ur"><circle cx="25" cy="25" r="24.5" style="fill:#777"/></g><g id="time-viser"><path d="M25,25a2.3,2.3,0,0,1-2-2.5v-10A2.3,2.3,0,0,1,25,10a2.3,2.3,0,0,1,2,2.5v10A2.3,2.3,0,0,1,25,25Z" style="fill:#fff"/></g><g id="minut-vier"><path d="M25,25a2.09,2.09,0,0,1-2-2.17V7.17a2,2,0,1,1,4,0V22.83A2.09,2.09,0,0,1,25,25Z" style="fill:#fff"/></g><g id="sekund-viser"><path d="M25,25c-.83,0-1.5-1.12-1.5-2.5V4.5c0-1.38.67-2.5,1.5-2.5s1.5,1.12,1.5,2.5v18C26.5,23.88,25.83,25,25,25Z" style="fill:#fff"/></g></svg>